<svg xmlns="http://www.w3.org/2000/svg" viewBox="0 0 210.66 52.91"><defs><style>.cls-1{fill:#6c6b73;}.cls-2{fill:#bf1f37;fill-rule:evenodd;}</style></defs><g id="Camada_2" data-name="Camada 2"><g id="Camada_1-2" data-name="Camada 1"><path class="cls-1" d="M129.22,44.88h1.08l2.28,5.35h-1.23L130.87,49h-2.25l-.48,1.19h-1.2ZM130.45,48l-.71-1.73L129,48Z"/><polygon class="cls-1" points="133.17 44.92 134.34 44.92 134.34 49.17 136.99 49.17 136.99 50.23 133.17 50.23 133.17 44.92"/><rect class="cls-1" x="137.7" y="44.92" width="1.17" height="5.31"/><polygon class="cls-1" points="139.97 44.92 141.22 44.92 142.62 47.16 144.02 44.92 145.28 44.92 145.28 50.23 144.12 50.23 144.12 46.76 142.62 49.03 142.59 49.03 141.12 46.78 141.12 50.23 139.97 50.23 139.97 44.92"/><polygon class="cls-1" points="146.33 44.92 150.34 44.92 150.34 45.96 147.49 45.96 147.49 47.03 150 47.03 150 48.07 147.49 48.07 147.49 49.19 150.37 49.19 150.37 50.23 146.33 50.23 146.33 44.92"/><polygon class="cls-1" points="151.19 44.92 152.27 44.92 154.76 48.19 154.76 44.92 155.91 44.92 155.91 50.23 154.91 50.23 152.34 46.85 152.34 50.23 151.19 50.23 151.19 44.92"/><polygon class="cls-1" points="158.2 46 156.58 46 156.58 44.92 160.98 44.92 160.98 46 159.37 46 159.37 50.23 158.2 50.23 158.2 46"/><path class="cls-1" d="M161.19,47.59v0a2.82,2.82,0,0,1,5.64,0h0a2.82,2.82,0,0,1-5.64,0m4.42,0v0a1.61,1.61,0,0,0-1.6-1.66,1.59,1.59,0,0,0-1.6,1.65h0A1.62,1.62,0,0,0,164,49.24,1.58,1.58,0,0,0,165.61,47.59Z"/><polygon class="cls-1" points="169.74 44.92 173.75 44.92 173.75 45.96 170.9 45.96 170.9 47.03 173.4 47.03 173.4 48.07 170.9 48.07 170.9 49.19 173.78 49.19 173.78 50.23 169.74 50.23 169.74 44.92"/><polygon class="cls-1" points="176.69 44.92 180.69 44.92 180.69 45.96 177.85 45.96 177.85 47.03 180.35 47.03 180.35 48.07 177.85 48.07 177.85 49.19 180.73 49.19 180.73 50.23 176.69 50.23 176.69 44.92"/><polygon class="cls-1" points="181.55 44.92 182.62 44.92 185.11 48.19 185.11 44.92 186.26 44.92 186.26 50.23 185.27 50.23 182.7 46.85 182.7 50.23 181.55 50.23 181.55 44.92"/><polygon class="cls-1" points="187.32 44.92 191.32 44.92 191.32 45.96 188.48 45.96 188.48 47.03 190.98 47.03 190.98 48.07 188.48 48.07 188.48 49.19 191.36 49.19 191.36 50.23 187.32 50.23 187.32 44.92"/><path class="cls-1" d="M192.18,44.92h2.42a2.11,2.11,0,0,1,1.55.54,1.64,1.64,0,0,1,.46,1.21v0a1.64,1.64,0,0,1-1.14,1.64l1.3,1.9H195.4l-1.14-1.7h-.92v1.7h-1.16Zm2.35,2.58c.57,0,.89-.31.89-.75v0c0-.5-.34-.76-.92-.76h-1.16V47.5Z"/><path class="cls-1" d="M197.2,47.59v0A2.72,2.72,0,0,1,200,44.83a2.91,2.91,0,0,1,2.08.73l-.73.88a2,2,0,0,0-1.39-.53,1.6,1.6,0,0,0-1.53,1.65h0A1.59,1.59,0,0,0,200,49.26a1.86,1.86,0,0,0,1.1-.32v-.76H200v-1h2.3v2.31a3.43,3.43,0,0,1-2.26.84,2.66,2.66,0,0,1-2.8-2.73"/><rect class="cls-1" x="203.22" y="44.92" width="1.17" height="5.31"/><path class="cls-1" d="M207.31,44.88h1.08l2.27,5.35h-1.22L209,49h-2.24l-.49,1.19H205ZM208.54,48l-.71-1.73-.7,1.73Z"/><path class="cls-1" d="M81.66,10.1A16.36,16.36,0,1,0,98,26.46,16.35,16.35,0,0,0,81.66,10.1m0,24.06a7.71,7.71,0,1,1,7.71-7.7A7.7,7.7,0,0,1,81.66,34.16Z"/><polygon class="cls-1" points="101.03 11.21 109.48 11.21 109.48 34.29 123.92 34.29 123.92 41.7 101.03 41.7 101.03 11.21"/><polygon class="cls-1" points="135.38 30.81 142.95 30.81 145.92 23.79 135.38 23.79 135.38 18.61 148.11 18.61 151.24 11.21 126.93 11.21 126.93 41.7 135.38 41.7 135.38 30.81"/><path class="cls-1" d="M157,11.21h8.09L178,41.7h-9l-2.2-5.41H155.11l-2.17,5.41h-8.83Zm7.35,18.55L161,21.15l-3.41,8.61Z"/><path class="cls-1" d="M179.47,11.21h14.42c4.66,0,7.88,1.22,9.94,3.31a9.47,9.47,0,0,1,2.69,7.09v.1a9.64,9.64,0,0,1-6.27,9.36l7.27,10.63h-9.75l-6.14-9.24h-3.71V41.7h-8.45Zm14,14.63c2.88,0,4.53-1.39,4.53-3.61v-.09c0-2.4-1.75-3.61-4.57-3.61h-5.54v7.31Z"/><path class="cls-2" d="M26.45,31.75a5.3,5.3,0,1,1,5.3-5.3,5.29,5.29,0,0,1-5.3,5.3"/><path class="cls-2" d="M26.45,10.58a5.29,5.29,0,1,1,5.3-5.29,5.28,5.28,0,0,1-5.3,5.29"/><path class="cls-2" d="M26.45,52.91a5.29,5.29,0,1,1,5.3-5.29,5.28,5.28,0,0,1-5.3,5.29"/><path class="cls-2" d="M5.29,31.75a5.3,5.3,0,1,1,5.29-5.3,5.29,5.29,0,0,1-5.29,5.3"/><path class="cls-2" d="M47.62,31.75a5.3,5.3,0,1,1,5.29-5.3,5.29,5.29,0,0,1-5.29,5.3"/><path class="cls-2" d="M41.42,16.78a5.29,5.29,0,1,1,5.29-5.29,5.28,5.28,0,0,1-5.29,5.29"/><path class="cls-2" d="M11.49,46.71a5.29,5.29,0,1,1,5.29-5.29,5.28,5.28,0,0,1-5.29,5.29"/><path class="cls-2" d="M6.2,11.49a5.29,5.29,0,1,1,5.29,5.29A5.28,5.28,0,0,1,6.2,11.49"/><path class="cls-2" d="M41.42,46.71a5.29,5.29,0,1,1,5.29-5.29,5.28,5.28,0,0,1-5.29,5.29"/></g></g></svg>